<svg width="63" height="64" viewBox="0 0 63 64" fill="none" xmlns="http://www.w3.org/2000/svg">
<path d="M40.6805 46.1599C40.8818 46.1599 41.0785 46.2197 41.2458 46.3319C41.4131 46.4441 41.5435 46.6036 41.6205 46.7902C41.6975 46.9768 41.7177 47.182 41.6784 47.3801C41.6392 47.5782 41.5423 47.7601 41.4 47.9029C41.2577 48.0457 41.0764 48.143 40.879 48.1823C40.6817 48.2218 40.4771 48.2015 40.2912 48.1242C40.1053 48.047 39.9464 47.9161 39.8346 47.7482C39.7228 47.5803 39.6631 47.3829 39.6631 47.1809C39.6631 46.9102 39.7703 46.6504 39.9611 46.459C40.1519 46.2675 40.4107 46.1599 40.6805 46.1599Z" stroke="#DFAE4F" stroke-width="1.5"/>
<path d="M50.8544 46.1599C51.0556 46.1599 51.2523 46.2197 51.4196 46.3319C51.5869 46.4441 51.7173 46.6036 51.7944 46.7902C51.8714 46.9768 51.8915 47.182 51.8523 47.3801C51.813 47.5782 51.7161 47.7601 51.5738 47.9029C51.4315 48.0457 51.2502 48.143 51.0528 48.1823C50.8555 48.2218 50.6509 48.2015 50.465 48.1242C50.2791 48.047 50.1202 47.9161 50.0084 47.7482C49.8966 47.5803 49.8369 47.3829 49.8369 47.1809C49.8369 46.9102 49.9441 46.6504 50.1349 46.459C50.3257 46.2675 50.5845 46.1599 50.8544 46.1599Z" stroke="#DFAE4F" stroke-width="1.5"/>
<path d="M40.6805 54.3281C40.8818 54.3281 41.0785 54.388 41.2458 54.5002C41.4131 54.6124 41.5435 54.7719 41.6205 54.9584C41.6975 55.145 41.7177 55.3503 41.6784 55.5484C41.6392 55.7464 41.5423 55.9283 41.4 56.0711C41.2577 56.2139 41.0764 56.3111 40.879 56.3506C40.6817 56.3899 40.4771 56.3698 40.2912 56.2925C40.1053 56.2152 39.9464 56.0844 39.8346 55.9165C39.7228 55.7485 39.6631 55.5511 39.6631 55.3492C39.6631 55.0783 39.7703 54.8187 39.9611 54.6273C40.1519 54.4357 40.4107 54.3281 40.6805 54.3281Z" stroke="#DFAE4F" stroke-width="1.5"/>
<path d="M50.8544 54.3281C51.0556 54.3281 51.2523 54.388 51.4196 54.5002C51.5869 54.6124 51.7173 54.7719 51.7944 54.9584C51.8714 55.145 51.8915 55.3503 51.8523 55.5484C51.813 55.7464 51.7161 55.9283 51.5738 56.0711C51.4315 56.2139 51.2502 56.3111 51.0528 56.3506C50.8555 56.3899 50.6509 56.3698 50.465 56.2925C50.2791 56.2152 50.1202 56.0844 50.0084 55.9165C49.8966 55.7485 49.8369 55.5511 49.8369 55.3492C49.8369 55.0783 49.9441 54.8187 50.1349 54.6273C50.3257 54.4357 50.5845 54.3281 50.8544 54.3281Z" stroke="#DFAE4F" stroke-width="1.5"/>
<path d="M53.9073 36.6306C53.9073 37.5917 53.91 37.9919 53.91 37.9919H37.6309C37.6309 37.9919 37.6309 37.5454 37.6309 36.5816L37.631 29.8238H53.9073V36.6306Z" stroke="#DFAE4F" stroke-width="1.5"/>
<path d="M62.0466 21.6558H29.4885L29.4884 24.8142V59.3381L29.4883 62.4964H62.0466V59.3381V24.8142V21.6558Z" stroke="#DFAE4F" stroke-width="1.5"/>
<path d="M10.1571 9.40375C10.3583 9.40375 10.555 9.46356 10.7224 9.57575C10.8897 9.68794 11.0201 9.8474 11.0971 10.034C11.1741 10.2206 11.1942 10.4258 11.155 10.6239C11.1157 10.822 11.0188 11.0039 10.8765 11.1467C10.7342 11.2894 10.553 11.3868 10.3556 11.4261C10.1582 11.4655 9.95364 11.4453 9.76772 11.368C9.58181 11.2907 9.42292 11.1599 9.31112 10.992C9.19932 10.8241 9.13965 10.6266 9.13965 10.4247C9.13965 10.154 9.24684 9.89426 9.43764 9.70279C9.62845 9.51132 9.88724 9.40375 10.1571 9.40375Z" stroke="white" stroke-width="1.5"/>
<path d="M21.3489 33.9077H1V1.23529H53.9071V13.4874" stroke="white" stroke-width="1.5"/>
<path d="M20.4125 21.6722C19.8697 20.7286 19.5205 19.6854 19.3855 18.6044C19.2504 17.5233 19.3323 16.4259 19.6263 15.3771C19.9202 14.3282 20.4204 13.349 21.0972 12.497C21.774 11.645 22.6138 10.9375 23.5672 10.4161C24.5206 9.89482 25.5683 9.57019 26.6487 9.4613C27.729 9.35252 28.8201 9.46161 29.8578 9.78233C30.8954 10.103 31.8587 10.6289 32.6907 11.3288C33.5228 12.0288 34.207 12.8888 34.7029 13.8581" stroke="white" stroke-width="1.5"/>
</svg>
