<svg width="61" height="62" viewBox="0 0 61 62" fill="none" xmlns="http://www.w3.org/2000/svg">
<path d="M5.33849 12.2853H30.6956C31.0496 12.2853 31.389 12.4264 31.6393 12.6774C31.8896 12.9286 32.0302 13.2693 32.0302 13.6245V60.4989H4.00391V13.6245C4.00391 13.2693 4.14451 12.9286 4.3948 12.6774C4.64508 12.4264 4.98454 12.2853 5.33849 12.2853Z" stroke="#DFAE4F" stroke-width="1.5"/>
<path d="M24.0225 4.24933H12.0107L12.0112 12.2849H24.0225V4.24933Z" stroke="#DFAE4F" stroke-width="1.5"/>
<path d="M12.0117 20.3206H24.023" stroke="#DFAE4F" stroke-width="1.5"/>
<path d="M12.0117 28.3566H24.023" stroke="#DFAE4F" stroke-width="1.5"/>
<path d="M12.0117 36.392H24.023" stroke="#DFAE4F" stroke-width="1.5"/>
<path d="M12.0117 44.4277H24.023" stroke="#DFAE4F" stroke-width="1.5"/>
<path d="M12.0117 52.4633H24.023" stroke="#DFAE4F" stroke-width="1.5"/>
<path d="M20.0186 0.231628V4.24945" stroke="#DFAE4F" stroke-width="1.5"/>
<path d="M56.0523 60.4988H40.0372L40.0371 24.3386H56.0523V60.4988Z" stroke="white" stroke-width="1.5"/>
<path d="M52.0488 20.3206V24.3385" stroke="white" stroke-width="1.5"/>
<path d="M0 60.4987H60.0564" stroke="white" stroke-width="1.5"/>
</svg>
