<svg width="62" height="59" viewBox="0 0 62 59" fill="none" xmlns="http://www.w3.org/2000/svg">
<path d="M60.9663 13.3833H1C1 13.3833 1.00033 15.1794 1.00033 17.395V53.5008L1.00037 57.5125H60.9663V53.5008V17.395V13.3833Z" stroke="white" stroke-width="1.5"/>
<path d="M12.9941 27.4243H48.9737" stroke="#DFAE4F" stroke-width="1.5"/>
<path d="M12.9941 43.4711H48.9737" stroke="#DFAE4F" stroke-width="1.5"/>
<path d="M39.8904 4.0892C39.6248 3.29076 39.1156 2.59638 38.4349 2.10439C37.7543 1.6124 36.9367 1.34773 36.0979 1.34784H25.869C25.0302 1.34773 24.2126 1.6124 23.5319 2.10439C22.8513 2.59638 22.3421 3.29076 22.0765 4.0892L18.9902 13.3831H42.9766L39.8904 4.0892Z" stroke="white" stroke-width="1.5"/>
<path d="M8.99512 13.3832V9.37149" stroke="#DFAE4F" stroke-width="1.5"/>
<path d="M52.9717 13.3832V9.37149" stroke="#DFAE4F" stroke-width="1.5"/>
</svg>
