<svg width="62" height="63" viewBox="0 0 62 63" fill="none" xmlns="http://www.w3.org/2000/svg">
<path d="M15.4658 61.476H46.3415L43.5947 55.9873C43.2894 55.2219 42.7583 54.5684 42.0726 54.1143C41.387 53.6602 40.5794 53.4272 39.7581 53.4465H22.2719C21.4506 53.4272 20.643 53.6602 19.9574 54.1143C19.2717 54.5684 18.7406 55.2219 18.4353 55.9873L15.4658 61.476Z" stroke="#DFAE4F" stroke-width="1.5"/>
<path d="M25.0127 53.4439V50.6782C25.1195 49.1835 25.8102 47.7917 26.9344 46.8054C28.0586 45.8192 29.5254 45.3183 31.0157 45.4118C32.5061 45.3183 33.9729 45.8192 35.0971 46.8054C36.2213 47.7917 36.912 49.1835 37.0188 50.6782V53.4439" stroke="#DFAE4F" stroke-width="1.5"/>
<path d="M31.0156 45.3821V15.291" stroke="white" stroke-width="1.5"/>
<path d="M35.932 10.544C35.9022 11.8183 35.3769 13.0304 34.4682 13.9212C33.5596 14.8119 32.3397 15.3105 31.0695 15.3105C29.7993 15.3105 28.5794 14.8119 27.6708 13.9212C26.7621 13.0304 26.2368 11.8183 26.207 10.544C26.8979 7.5633 28.0531 4.71071 29.6301 2.09143C29.7714 1.83226 29.9796 1.61603 30.2329 1.46541C30.4861 1.31477 30.7751 1.23529 31.0695 1.23529C31.3639 1.23529 31.6529 1.31477 31.9061 1.46541C32.1594 1.61603 32.3676 1.83226 32.5089 2.09143C34.0848 4.71128 35.2399 7.56368 35.932 10.544Z" stroke="#DFAE4F" stroke-width="1.5"/>
<path d="M5.00195 19.3073H57.0284" stroke="white" stroke-width="1.5"/>
<path d="M11.0049 19.3073V31.3555" stroke="white" stroke-width="1.5"/>
<path d="M19.7479 31.3555C19.9283 31.3554 20.1067 31.3941 20.2709 31.4689C20.4352 31.5437 20.5817 31.653 20.7004 31.7892C20.8192 31.924 20.9072 32.0833 20.9584 32.2558C21.0095 32.4283 21.0226 32.6098 20.9966 32.7879C20.6296 35.1831 19.4203 37.3674 17.5876 38.9454C15.7548 40.5235 13.4197 41.391 11.0048 41.391C8.5899 41.391 6.25477 40.5235 4.42204 38.9454C2.58929 37.3674 1.38001 35.1831 1.01306 32.7879C0.98702 32.6094 1.00002 32.4274 1.05117 32.2545C1.10231 32.0816 1.19036 31.9219 1.30921 31.7865C1.42883 31.6509 1.57587 31.5422 1.74055 31.4678C1.90523 31.3936 2.08379 31.3552 2.26436 31.3555H19.7479Z" stroke="#DFAE4F" stroke-width="1.5"/>
<path d="M51.0254 19.3073V31.3555" stroke="white" stroke-width="1.5"/>
<path d="M59.7684 31.3555C59.9488 31.3554 60.1272 31.3941 60.2915 31.4689C60.4557 31.5437 60.6022 31.653 60.7209 31.7892C60.8397 31.924 60.9277 32.0833 60.9789 32.2558C61.03 32.4283 61.0431 32.6098 61.0171 32.7879C60.6501 35.1831 59.4408 37.3674 57.6081 38.9454C55.7753 40.5235 53.4402 41.391 51.0253 41.391C48.6104 41.391 46.2753 40.5235 44.4425 38.9454C42.6098 37.3674 41.4005 35.1831 41.0336 32.7879C41.0075 32.6094 41.0205 32.4274 41.0717 32.2545C41.1228 32.0816 41.2109 31.9219 41.3297 31.7865C41.4493 31.6509 41.5964 31.5422 41.7611 31.4678C41.9257 31.3936 42.1043 31.3552 42.2849 31.3555H59.7684Z" stroke="#DFAE4F" stroke-width="1.5"/>
</svg>
