<svg width="64" height="65" viewBox="0 0 64 65" fill="none" xmlns="http://www.w3.org/2000/svg">
<path d="M17.4766 26.1486H58.6665" stroke="#DFAE4F" stroke-width="1.5"/>
<path d="M38.0703 22.0145V55.0821" stroke="#DFAE4F" stroke-width="1.5"/>
<path d="M29.832 63.3497C29.832 61.1571 30.7 59.0545 32.2449 57.504C33.7898 55.9537 35.8852 55.0828 38.07 55.0828C40.2549 55.0828 42.3502 55.9537 43.8952 57.504C45.4401 59.0545 46.308 61.1571 46.308 63.3497H29.832Z" stroke="#DFAE4F" stroke-width="1.5"/>
<path d="M13.2188 42.1531L21.5931 27.2383L29.9617 42.1725" stroke="#DFAE4F" stroke-width="1.5"/>
<path d="M46.1758 42.1957L54.5461 27.5395L62.9249 42.1957" stroke="#DFAE4F" stroke-width="1.5"/>
<path d="M29.8305 42.6825C29.8305 44.875 28.9625 46.9777 27.4176 48.528C25.8727 50.0783 23.7773 50.9494 21.5925 50.9494C19.4076 50.9494 17.3123 50.0783 15.7673 48.528C14.2224 46.9777 13.3545 44.875 13.3545 42.6825H29.8305Z" stroke="#DFAE4F" stroke-width="1.5"/>
<path d="M62.7846 42.6825C62.7846 44.875 61.9167 46.9777 60.3717 48.528C58.8268 50.0783 56.7314 50.9494 54.5466 50.9494C52.3617 50.9494 50.2664 50.0783 48.7214 48.528C47.1765 46.9777 46.3086 44.875 46.3086 42.6825H62.7846Z" stroke="#DFAE4F" stroke-width="1.5"/>
<path d="M17.476 59.216H5.119C4.02657 59.216 2.97889 58.7806 2.20643 58.0053C1.43396 57.2301 1 56.1789 1 55.0825V5.48128C1 4.38502 1.43396 3.33367 2.20643 2.5585C2.97889 1.78332 4.02657 1.34784 5.119 1.34784H33.098C33.6449 1.34789 34.1694 1.56596 34.5561 1.95408L45.7048 13.142C46.0916 13.53 46.3089 14.0564 46.309 14.6052V17.8816" stroke="white" stroke-width="1.5"/>
</svg>
