<svg width="61" height="64" viewBox="0 0 61 64" fill="none" xmlns="http://www.w3.org/2000/svg">
<path d="M39.1289 48.3361V54.8805C39.1289 56.0375 38.6708 57.1473 37.8555 57.9655C37.0402 58.7836 35.9343 59.2433 34.7812 59.2433H26.0859C24.9329 59.2433 23.827 58.7836 23.0117 57.9655C22.1963 57.1473 21.7383 56.0375 21.7383 54.8805V48.3361" stroke="white" stroke-width="1.5"/>
<path d="M30.4336 0.344421V4.70734" stroke="#DFAE4F" stroke-width="1.5"/>
<path d="M0 30.8848H4.34765" stroke="#DFAE4F" stroke-width="1.5"/>
<path d="M6.52148 9.07001L9.70978 12.1444" stroke="#DFAE4F" stroke-width="1.5"/>
<path d="M60.8672 30.8848H56.5195" stroke="#DFAE4F" stroke-width="1.5"/>
<path d="M54.3455 9.07001L51.1572 12.1444" stroke="#DFAE4F" stroke-width="1.5"/>
<path d="M21.4925 48.3363H39.3758C42.6054 46.7276 45.3162 44.2358 47.1957 41.1481C49.0751 38.0604 50.0468 34.5025 49.9986 30.8847C49.907 25.7064 47.8164 20.7658 44.167 17.1036C40.5176 13.4414 35.5944 11.3435 30.4342 11.2516C25.272 11.3436 20.347 13.4431 16.6973 17.1078C13.0476 20.7724 10.9583 25.7159 10.8697 30.8962C10.8237 34.5122 11.7964 38.0676 13.6758 41.153C15.5551 44.2385 18.2647 46.7285 21.4925 48.3363Z" stroke="white" stroke-width="1.5"/>
<path d="M30.4336 37.4291V48.3363" stroke="#DFAE4F" stroke-width="1.5"/>
<path d="M23.9121 30.8848L30.4336 37.4291L36.9551 30.8848" stroke="#DFAE4F" stroke-width="1.5"/>
<path d="M30.4336 59.2436V63.6472" stroke="#DFAE4F" stroke-width="1.5"/>
</svg>
