<svg width="50" height="42" viewBox="0 0 50 42" fill="none" xmlns="http://www.w3.org/2000/svg">
<path d="M25.8929 40.0473L23.8711 41.7164V0H25.8929V40.0473Z" fill="#DFAE4F"/>
<path d="M31.1164 34.8215L29.0952 36.4898V5.22583H31.1164V34.8215Z" fill="#DFAE4F"/>
<path d="M20.6678 34.8215L18.646 36.4898V5.22583H20.6678V34.8215Z" fill="#DFAE4F"/>
<path d="M48.9987 4.17358C48.9987 4.75474 48.7728 5.28121 48.4064 5.66206C48.0412 6.04291 47.5357 6.2788 46.9776 6.2788H2.78657C1.66967 6.2788 0.765381 5.33656 0.765381 4.17358H48.9987Z" fill="#DFAE4F"/>
<path d="M8.15944 6.27881L7.44563 4.17358H6.01549L5.30167 6.27881L0 21.9266H13.4611L8.15944 6.27881ZM6.73056 8.3893L10.6046 19.822H2.85713L6.73056 8.3893Z" fill="#DFAE4F"/>
<path d="M10.0119 25.6284H3.45029C2.33401 25.6284 1.42847 24.6861 1.42847 23.5232H12.0331C12.0331 24.6861 11.1282 25.6284 10.0119 25.6284Z" fill="#DFAE4F"/>
<path d="M44.299 6.27881L43.5857 4.17358H42.4784L41.7652 6.27881L36.3015 22.4037H49.7627L44.299 6.27881ZM43.032 8.86569L46.9055 20.2985H39.158L43.032 8.86569Z" fill="#DFAE4F"/>
<path d="M46.3128 26.1055H39.7518C38.6355 26.1055 37.73 25.1632 37.73 24.001H48.334C48.3346 25.1632 47.429 26.1055 46.3128 26.1055Z" fill="#DFAE4F"/>
</svg>
